<?xml version="1.0" encoding="utf-8"?>
<!-- Generator: Adobe Illustrator 16.0.0, SVG Export Plug-In . SVG Version: 6.00 Build 0)  -->
<!DOCTYPE svg PUBLIC "-//W3C//DTD SVG 1.1//EN" "http://www.w3.org/Graphics/SVG/1.1/DTD/svg11.dtd">
<svg version="1.1" id="Layer_4" xmlns="http://www.w3.org/2000/svg" xmlns:xlink="http://www.w3.org/1999/xlink" x="0px" y="0px"
	 width="410.667px" height="128px" viewBox="0 0 410.667 128" enable-background="new 0 0 410.667 128" xml:space="preserve">
<path fill="#FFFFFF" d="M397.541,35.792l-0.083,24.167c0,0-1.542,0.417-4.792,0.417s-5.416-1.208-5.416-1.208l-5.625-0.042
	c0,0,0.208-2.375-1.125-2.375c-1.209,0-1.082,1.642-1.082,1.642l-1.085-0.059l-2.667-2.292h-5.291l-1.209,1.375l-8.417,0.042
	l-15.5-13.749l-11.246,0.019l-1.42,1.564l-5.292-3.875c0,0,3.938-3.426,5.625-16.333c1.542-11.792-9.144-21.268-10.667-19.667
	c-1.625,1.708,9.202,7.134,7.751,18.917C328.291,38.208,318,45,318,45H128.667c0,0-1.427,0.005-4.333,4
	c-2.121,2.916-2.333,5.333-2.333,5.333l-2.589,1.156l0.016,2.188c0,0-3.678-0.078-4.532,0.672c-0.841,0.739-0.906,3.062-0.906,3.062
	l-1.479-0.021l-0.005-3.042l-2.466,0.006c0,0,0.044,2.103-1.456,2.603s-2.601,0.294-3.292-0.104c-0.778-0.449-1-2.125-1-2.125
	S97,58.333,94,59s-3.445,2.43-6.333,3.167c-3.186,0.812-6.71,0.75-6.71,0.75l-1.29,1.221H6.333l4,1.631h69.333l1.29,1.221
	c0,0,3.524-0.062,6.71,0.75C90.555,68.477,91,70.24,94,70.907s10.292,0.271,10.292,0.271s0.222-1.676,1-2.125
	c0.69-0.398,1.792-0.604,3.292-0.104s1.456,2.603,1.456,2.603l2.466,0.006l0.005-3.042l1.479-0.021c0,0,0.064,2.324,0.906,3.062
	c0.854,0.75,4.532,0.672,4.532,0.672l-0.016,2.188L122,75.574c0,0,0.212,2.417,2.333,5.333c2.906,3.995,4.333,4,4.333,4H318
	c0,0,10.291,6.792,12,20.667c1.451,11.782-9.376,17.209-7.751,18.916c1.523,1.602,12.209-7.875,10.667-19.666
	c-1.688-12.907-5.625-16.334-5.625-16.334l5.292-3.875l1.42,1.564l11.246,0.019l15.5-13.749l8.417,0.042l1.209,1.375h5.291
	l2.667-2.292l1.085-0.059c0,0-0.127,1.642,1.082,1.642c1.333,0,1.125-2.375,1.125-2.375l5.625-0.042c0,0,2.166-1.208,5.416-1.208
	s4.792,0.417,4.792,0.417l0.083,24.167H404V68.907V61V35.792H397.541z M301.616,74.333H152.05c-5.505,0-9.967-4.225-9.967-9.438
	s4.462-9.438,9.967-9.438h149.566c5.504,0,9.967,4.225,9.967,9.438S307.12,74.333,301.616,74.333z"/>
</svg>
